# xmcd
#
# Track frame offsets: 
#        150
#        23758
#        45873
#        61274
#        82742
#        106030
#        124814
#        142523
#        164252
#        192144
#        213814
#        241730
#
# Disc length: 3509 seconds
#
# Revision: 0
# Processed by: cddbd v1.5.2PL0 Copyright (c) Steve Scherf et al.
# Submitted via: ExactAudioCopy v1.3
#
DISCID=7f0db30c
DTITLE=Dana Gillespie - Songs Of Love
DYEAR=2015
DGENRE=World Music, Blues
TTITLE0=Realising
TTITLE1=You're The Star
TTITLE2=Guardian Blue Angel
TTITLE3=One Kiss X 108
TTITLE4=All Is One
TTITLE5=True Blue Love
TTITLE6=Soul On Fire
TTITLE7=I Sigh (Sai) For You
TTITLE8=As Close As Your Shadow
TTITLE9=Happy Birthday Baba
TTITLE10=There Is Only One
TTITLE11=Mantra
EXTD=
EXTT0=
EXTT1=
EXTT2=
EXTT3=
EXTT4=
EXTT5=
EXTT6=
EXTT7=
EXTT8=
EXTT9=
EXTT10=
EXTT11=
PLAYORDER=
